#!OML:ASF I:\golf\golf\golf 2\Subject 1\2002-09-07\Subject1.ASF
:FULLY-SPECIFIED
:DEGREES
151
root -6.12087 17.773 0.376729 -55.8775 85.5092 -73.2875
lowerback 1.46604 2.93253 -2.96034
upperback 4.02003 3.94135 3.47438
thorax 2.88476 1.86945 5.28755
lowerneck -15.2701 -1.60229 0.0387287
upperneck 38.8202 0.744334 -3.19568
head 16.558 0.41105 -1.12447
rclavicle -2.96189e-014 -8.74653e-015
rhumerus -11.4501 4.72429 -102.788
rradius 32.1931
rwrist -55.0616
rhand -22.045 -8.06768
rfingers 7.12502
rthumb 4.36527 -38.0027
lclavicle -2.96189e-014 -8.74653e-015
lhumerus -6.24651 -74.189 102.671
lradius 26.4882
lwrist 37.9286
lhand 3.61784 69.8003
lfingers 7.12502
lthumb -150.949 82.4447
rfemur -32.5222 1.88167 11.5599
rtibia 29.0365
rfoot -8.54683 -8.46952
rtoes -0.247378
lfemur -30.426 11.8484 -7.86227
ltibia 29.2386
lfoot -10.7384 -0.775942
ltoes -22.6748
152
root -6.1302 17.7681 0.397521 -49.2789 85.0516 -66.6199
lowerback 1.52445 2.99289 -3.11134
upperback 4.08115 4.02212 3.43604
thorax 2.89964 1.90457 5.33132
lowerneck -15.2628 -1.40669 0.102588
upperneck 38.7393 1.03454 -3.27734
head 16.5228 0.522351 -1.12009
rclavicle -3.35946e-014 -2.70347e-014
rhumerus -11.4948 4.71475 -102.852
rradius 32.7884
rwrist -55.3311
rhand -22.7069 -8.29023
rfingers 7.12502
rthumb 3.72614 -38.2374
lclavicle -3.35946e-014 -2.70347e-014
lhumerus -4.90078 -75.7566 100.973
lradius 26.9236
lwrist 38.6982
lhand 4.07042 69.1849
lfingers 7.12502
lthumb -150.517 83.1354
rfemur -32.7687 2.38997 11.7628
rtibia 29.2168
rfoot -8.61676 -8.24172
rtoes -0.457474
lfemur -30.1216 12.0574 -7.55081
ltibia 29.264
lfoot -10.7303 -0.144635
ltoes -23.4507
153
root -6.13944 17.7651 0.417977 -42.5221 84.6194 -59.8062
lowerback 1.5457 3.03012 -3.45188
upperback 4.1405 4.07285 3.36585
thorax 2.92715 1.91847 5.45109
lowerneck -15.2631 -1.188 0.162793
upperneck 38.6621 1.36099 -3.36213
head 16.4935 0.647037 -1.11022
rclavicle 2.82274e-014 3.61788e-014
rhumerus -11.5748 5.03391 -102.889
rradius 33.4994
rwrist -55.9181
rhand -23.524 -8.72309
rfingers 7.12502
rthumb 2.93707 -38.6826
lclavicle 2.82274e-014 3.61788e-014
lhumerus -3.30911 -76.8974 99.1075
lradius 27.1967
lwrist 39.1233
lhand 4.6789 68.6427
lfingers 7.12502
lthumb -149.936 83.7815
rfemur -33.0085 2.81613 11.8484
rtibia 29.3295
rfoot -8.53659 -7.94773
rtoes -1.04438
lfemur -29.8047 12.1054 -7.35676
ltibia 29.2829
lfoot -10.7229 0.635026
ltoes -23.769
154
root -6.14869 17.7634 0.435574 -36.0461 84.2311 -53.3048
lowerback 1.55932 3.02182 -3.86922
upperback 4.16856 4.06265 3.25171
thorax 2.93182 1.90052 5.56769
lowerneck -15.2198 -0.95537 0.16522
upperneck 38.5691 1.72909 -3.45138
head 16.4472 0.78034 -1.0841
rclavicle -4.75095e-014 -2.54444e-014
rhumerus -11.6889 5.40402 -102.909
rradius 34.3133
rwrist -56.7615
rhand -25.0633 -9.16495
rfingers 7.12502
rthumb 1.45044 -39.1398
lclavicle -4.75095e-014 -2.54444e-014
lhumerus -1.75717 -77.5165 97.3701
lradius 27.2347
lwrist 38.919
lhand 6.025 67.488
lfingers 7.12502
lthumb -148.653 85.1773
rfemur -33.2529 3.11237 11.8031
rtibia 29.3901
rfoot -8.45504 -7.52157
rtoes -1.4592
lfemur -29.5199 12.0335 -7.29788
ltibia 29.2931
lfoot -10.7389 1.38184
ltoes -23.4968
155
root -6.15663 17.7609 0.451025 -31.0495 83.7214 -48.2559
lowerback 1.56418 2.95498 -4.20562
upperback 4.23315 3.9754 3.19633
thorax 2.99086 1.84394 5.70307
lowerneck -15.1988 -0.668713 0.0980324
upperneck 38.4684 2.20382 -3.55227
head 16.4069 0.944531 -1.03186
rclavicle -9.93923e-015 7.15625e-015
rhumerus -11.7702 5.75115 -102.906
rradius 35.05
rwrist -57.49
rhand -26.9998 -9.33401
rfingers 7.12502
rthumb -0.41993 -39.3133
lclavicle -9.93923e-015 7.15625e-015
lhumerus 0.311154 -78.0937 95.1996
lradius 27.3917
lwrist 39.0922
lhand 6.96009 67.173
lfingers 7.12502
lthumb -147.762 85.6691
rfemur -33.446 3.24811 11.8966
rtibia 29.4198
rfoot -8.37828 -6.89508
rtoes -1.86777
lfemur -29.1937 12.0428 -7.16535
ltibia 29.3037
lfoot -10.7588 2.05201
ltoes -23.4045
156
root -6.16385 17.7579 0.470771 -27.4913 83.0875 -44.6334
lowerback 1.51601 2.8499 -4.55976
upperback 4.3474 3.84029 3.22849
thorax 3.13279 1.75833 5.94647
lowerneck -15.2841 -0.335275 0.0421356
upperneck 38.3832 2.76936 -3.71902
head 16.4069 1.13592 -0.994888
rclavicle 4.33351e-014 2.90226e-014
rhumerus -11.7817 6.14855 -102.79
rradius 35.7329
rwrist -57.9795
rhand -27.4021 -9.61057
rfingers 7.12502
rthumb -0.808431 -39.5888
lclavicle 4.33351e-014 2.90226e-014
lhumerus 3.21756 -78.7583 92.224
lradius 27.7533
lwrist 39.766
lhand 6.99902 67.429
lfingers 7.12502
lthumb -147.725 85.4205
rfemur -33.6091 3.41851 12.1214
rtibia 29.4248
rfoot -8.34393 -6.25113
rtoes -1.9122
lfemur -28.8473 12.0816 -6.89289
ltibia 29.3253
lfoot -10.7245 2.76826
ltoes -23.5966
157
root -6.17212 17.755 0.492844 -24.7314 82.4051 -41.8247
lowerback 1.50266 2.81226 -4.78429
upperback 4.42022 3.79363 3.15892
thorax 3.21479 1.72415 6.00488
lowerneck -15.3503 -0.0583607 0.148611
upperneck 38.2603 3.18225 -3.87325
head 16.3791 1.29012 -1.00828
rclavicle 9.74045e-015 3.97569e-015
rhumerus -11.7093 5.91419 -102.721
rradius 36.4004
rwrist -58.2661
rhand -26.4992 -10.0985
rfingers 7.12502
rthumb 0.0635694 -40.0783
lclavicle 9.74045e-015 3.97569e-015
lhumerus 6.76281 -79.8374 88.5098
lradius 28.1829
lwrist 40.6638
lhand 6.54289 66.7929
lfingers 7.12502
lthumb -148.16 85.9693
rfemur -33.7706 3.65051 12.3805
rtibia 29.4038
rfoot -8.33604 -5.67105
rtoes -1.87029
lfemur -28.5181 12.0675 -6.55534
ltibia 29.3597
lfoot -10.6429 3.58811
ltoes -23.7512
158
root -6.1791 17.753 0.518952 -21.802 81.5272 -38.8233
lowerback 1.52256 2.90338 -4.94887
upperback 4.45365 3.91748 2.96454
thorax 3.22452 1.78148 5.89305
lowerneck -15.3261 0.177568 0.368976
upperneck 38.1136 3.45788 -3.94127
head 16.3111 1.41864 -1.02862
rclavicle -2.48481e-014 -2.20651e-014
rhumerus -11.6788 5.04197 -102.713
rradius 37.126
rwrist -58.5529
rhand -25.2888 -10.7287
rfingers 7.12502
rthumb 1.23265 -40.7049
lclavicle -2.48481e-014 -2.20651e-014
lhumerus 11.2832 -81.1182 83.7413
lradius 28.4751
lwrist 41.0782
lhand 7.45963 66.538
lfingers 7.12502
lthumb -147.287 86.4017
rfemur -33.9377 3.92127 12.707
rtibia 29.362
rfoot -8.31973 -4.94281
rtoes -2.1649
lfemur -28.0829 12.2823 -6.20487
ltibia 29.4068
lfoot -10.6724 4.34555
ltoes -23.6581
159
root -6.18523 17.7514 0.547551 -19.5626 80.5356 -36.5079
lowerback 1.54616 2.97726 -5.10414
upperback 4.46792 4.01753 2.78663
thorax 3.21507 1.82807 5.79237
lowerneck -15.2882 0.484071 0.541324
upperneck 38.0195 3.84186 -3.94735
head 16.2702 1.59418 -0.994294
rclavicle -1.89342e-014 7.50412e-015
rhumerus -11.7635 4.25551 -102.664
rradius 37.9156
rwrist -58.8775
rhand -25.1138 -11.4255
rfingers 7.12502
rthumb 1.40162 -41.4007
lclavicle -1.89342e-014 7.50412e-015
lhumerus 16.3682 -81.9811 78.4433
lradius 28.4852
lwrist 40.5935
lhand 10.0768 66.7508
lfingers 7.12502
lthumb -144.801 86.7399
rfemur -34.1032 4.1751 13.1384
rtibia 29.3051
rfoot -8.27834 -4.04672
rtoes -2.1885
lfemur -27.613 12.6565 -5.79222
ltibia 29.4655
lfoot -10.7399 4.94972
ltoes -23.6839
160
root -6.19284 17.7471 0.566964 -18.1283 79.676 -35.0458
lowerback 1.58841 2.90589 -5.13631
upperback 4.45991 3.92159 2.61437
thorax 3.2052 1.78106 5.6275
lowerneck -15.2684 0.906749 0.67886
upperneck 37.9178 4.40826 -3.94815
head 16.2376 1.83886 -0.918943
rclavicle -6.22444e-014 -1.43622e-014
rhumerus -11.851 3.89659 -102.682
rradius 38.6117
rwrist -59.177
rhand -26.9606 -11.7059
rfingers 7.12502
rthumb -0.382022 -41.6853
lclavicle -6.22444e-014 -1.43622e-014
lhumerus 21.6175 -82.5546 73.132
lradius 28.8491
lwrist 41.0049
lhand 9.28986 68.8017
lfingers 7.12502
lthumb -145.548 84.5161
rfemur -34.2888 4.17961 13.5808
rtibia 29.2417
rfoot -8.17358 -3.00402
rtoes -1.29205
lfemur -27.2731 12.7966 -5.39124
ltibia 29.534
lfoot -10.7379 5.66731
ltoes -24.2821
161
root -6.19991 17.7412 0.585538 -16.6612 78.7742 -33.5613
lowerback 1.63575 2.80672 -5.23154
upperback 4.44324 3.78828 2.45053
thorax 3.18393 1.71381 5.50691
lowerneck -15.2327 1.36993 0.861566
upperneck 37.7708 5.05286 -4.0482
head 16.1878 2.10853 -0.881001
rclavicle 8.84592e-015 -3.37934e-015
rhumerus -11.975 3.9183 -102.655
rradius 39.3776
rwrist -59.9698
rhand -28.8539 -11.8407
rfingers 7.12502
rthumb -2.21064 -41.809
lclavicle 8.84592e-015 -3.37934e-015
lhumerus 26.7543 -82.8519 67.9708
lradius 28.9466
lwrist 40.9002
lhand 8.99869 68.2532
lfingers 7.12502
lthumb -145.824 85.0023
rfemur -34.4797 4.19494 13.9817
rtibia 29.1608
rfoot -8.10328 -1.90843
rtoes 1.0399
lfemur -26.9386 12.9916 -5.0407
ltibia 29.6169
lfoot -10.7468 6.48936
ltoes -24.9698
162
root -6.20596 17.7362 0.606973 -15.2558 77.7683 -32.0549
lowerback 1.7696 2.6793 -5.43843
upperback 4.41819 3.61262 2.33204
thorax 3.10204 1.62378 5.49223
lowerneck -15.0757 1.86827 0.975296
upperneck 37.5674 5.79196 -4.20865
head 16.0873 2.40277 -0.84144
rclavicle -2.0276e-014 -1.76918e-014
rhumerus -12.2825 4.20672 -102.499
rradius 40.3768
rwrist -61.3321
rhand -29.7952 -12.4067
rfingers 7.12502
rthumb -3.11969 -42.3636
lclavicle -2.0276e-014 -1.76918e-014
lhumerus 30.0506 -82.7833 64.7264
lradius 28.8809
lwrist 40.1882
lhand 9.66807 64.2349
lfingers 7.12502
lthumb -145.189 89.1652
rfemur -34.5764 4.27292 14.4124
rtibia 29.0593
rfoot -8.01748 -0.897262
rtoes 3.68152
lfemur -26.445 13.3046 -4.67998
ltibia 29.6928
lfoot -10.848 7.22225
ltoes -24.8106
163
root -6.21061 17.7329 0.628466 -14.1059 76.7304 -30.8218
lowerback 1.84224 2.45974 -5.64355
upperback 4.39522 3.31577 2.26288
thorax 3.07127 1.47071 5.53341
lowerneck -14.8721 2.43017 0.902255
upperneck 37.3351 6.66501 -4.32577
head 15.9616 2.73383 -0.727883
rclavicle 2.08724e-014 -4.37326e-015
rhumerus -12.6124 4.80492 -102.317
rradius 41.3296
rwrist -62.636
rhand -30.6746 -13.1982
rfingers 7.12502
rthumb -3.96892 -43.1409
lclavicle 2.08724e-014 -4.37326e-015
lhumerus 31.4667 -82.4397 63.446
lradius 28.7364
lwrist 39.3589
lhand 10.0059 55.8
lfingers 7.12502
lthumb -144.868 262.325
rfemur -34.6652 4.35575 14.9007
rtibia 28.9576
rfoot -7.85166 -0.0831686
rtoes 4.17545
lfemur -25.914 13.6235 -4.28117
ltibia 29.7187
lfoot -11.0041 7.8057
ltoes -23.9227
164
root -6.21096 17.7319 0.662712 -13.0095 75.5747 -29.8593
lowerback 1.51163 2.2662 -5.97139
upperback 4.3704 3.07424 2.23747
thorax 3.25254 1.33196 5.70937
lowerneck -14.7336 2.96983 0.84886
upperneck 37.1113 7.5046 -4.46818
head 15.8587 3.05031 -0.634976
rclavicle -2.20651e-014 -3.57812e-015
rhumerus -12.803 5.49091 -102.055
rradius 42.1892
rwrist -63.7894
rhand -31.4623 -13.8909
rfingers 7.12502
rthumb -4.72952 -43.8181
lclavicle -2.20651e-014 -3.57812e-015
lhumerus 32.1859 -82.0638 63.0093
lradius 28.53
lwrist 38.5081
lhand 10.9748 60.9365
lfingers 7.12502
lthumb -143.95 267.241
rfemur -34.9504 4.64291 15.4372
rtibia 28.874
rfoot -7.74273 0.602374
rtoes 2.66304
lfemur -25.5064 14.1415 -3.81835
ltibia 29.6867
lfoot -11.1436 8.27889
ltoes -22.9611
165
root -6.20907 17.7295 0.692142 -12.0101 74.4455 -28.8078
lowerback 1.28283 2.10186 -6.3081
upperback 4.42836 2.87364 2.15132
thorax 3.46274 1.21157 5.82252
lowerneck -14.5302 3.48788 0.993356
upperneck 36.7704 8.26062 -4.70446
head 15.6953 3.35137 -0.634409
rclavicle 4.6118e-014 1.59028e-014
rhumerus -12.9216 5.79571 -101.76
rradius 43.1456
rwrist -64.8853
rhand -32.5734 -14.1175
rfingers 7.12502
rthumb -5.80234 -44.018
lclavicle 4.6118e-014 1.59028e-014
lhumerus 33.5691 -81.705 62.0043
lradius 28.3196
lwrist 37.467
lhand 11.8548 63.3925
lfingers 7.12502
lthumb -143.117 269.487
rfemur -35.0218 4.83475 15.9019
rtibia 28.7805
rfoot -7.75525 1.5154
rtoes 1.71961
lfemur -24.8723 14.4985 -3.40361
ltibia 29.6463
lfoot -11.3001 8.90006
ltoes -22.3317
